<svg viewBox="0 0 301 305" fill="none" xmlns="http://www.w3.org/2000/svg">
<path d="M280.336 124.465C287.094 103.82 284.841 80.9219 273.953 62.1531C257.432 33.2492 224.015 18.6096 191.349 25.3663C177.082 9.22519 156.055 0.216187 134.278 0.216187C100.861 0.216187 71.5747 21.6126 61.0616 53.1441C39.6599 57.6486 21.2619 70.7868 10.3732 89.9309C-6.14741 118.835 -2.39272 154.871 19.76 179.646C13.0015 200.667 15.6298 223.189 26.5184 241.958C43.0391 270.862 76.4558 285.877 109.122 278.745C123.765 294.886 144.416 304.27 166.193 304.27C199.61 304.27 228.896 282.874 239.41 251.342C260.811 246.838 279.209 233.7 290.098 214.556C306.619 185.652 302.864 149.24 280.336 124.465ZM166.193 284.375C152.676 284.375 139.91 279.871 129.772 271.237C130.148 270.862 131.274 270.486 131.65 270.111L192.1 235.201C195.104 233.324 196.981 230.321 196.981 226.568V141.357L222.513 155.997C222.889 155.997 222.889 156.372 222.889 156.748V227.318C223.264 258.85 197.732 284.375 166.193 284.375ZM43.79 232.198C37.0316 220.562 34.7787 207.048 37.0316 193.91C37.407 194.285 38.158 194.661 38.9089 195.036L99.3595 229.946C102.363 231.823 106.118 231.823 109.122 229.946L183.089 187.153V216.808C183.089 217.183 183.089 217.559 182.714 217.559L121.512 252.844C94.4784 268.61 59.5597 259.225 43.79 232.198ZM28.0203 100.066C34.7787 88.4294 45.2919 79.7958 57.6824 74.9159V146.988C57.6824 150.366 59.5597 153.745 62.5635 155.622L136.531 198.414L110.999 213.054C110.624 213.054 110.248 213.429 110.248 213.054L49.0466 177.769C21.2619 162.003 12.2506 127.093 28.0203 100.066ZM238.283 148.865L164.316 106.072L189.848 91.4324C190.223 91.4324 190.599 91.057 190.599 91.4324L251.8 126.718C279.209 142.483 288.221 177.393 272.451 204.42C265.692 216.057 255.179 224.691 242.789 229.195V157.498C243.164 154.12 241.287 150.742 238.283 148.865ZM263.44 110.577C263.064 110.201 262.313 109.826 261.562 109.45L201.112 74.5405C198.108 72.6636 194.353 72.6636 191.349 74.5405L117.382 117.333V87.6786C117.382 87.3033 117.382 86.9279 117.757 86.9279L178.959 51.6426C206.368 35.8768 240.911 45.2612 256.681 72.6636C263.44 83.9249 265.692 97.4384 263.44 110.577ZM103.49 163.129L77.9577 148.489C77.5823 148.489 77.5823 148.114 77.5823 147.739V77.1681C77.5823 45.6366 103.114 20.1111 134.654 20.1111C148.17 20.1111 160.936 24.6156 171.074 33.2492C170.699 33.6246 169.948 34 169.197 34.3753L108.746 69.2853C105.742 71.1621 103.865 74.1651 103.865 77.9189V163.129H103.49ZM117.382 133.099L150.423 113.955L183.465 133.099V171.012L150.423 190.156L117.382 171.012V133.099Z" fill="black"/>
</svg>
